# xmcd
#
# Track frame offsets:
#	150
#	14950
#	36835
#	49730
#	65150
#	81520
#	100575
#	124515
#	140230
#	162698
#	173663
#	185238
#	199963
#	215675
#	231055
#	251265
#	262555
#
# Disc length: 3679 seconds
#
# Revision: 1
# Processed by: cddbd v1.5PL3 Copyright (c) Steve Scherf et al.
# Submitted via: CDex 1.50Beta5
#
DISCID=000e5d11
DTITLE=鮫島有美子 - ゴンドラの唄 日本抒情歌集
DYEAR=1990
DGENRE=Classical
TTITLE0=あざみの歌
TTITLE1=さすらひの唄
TTITLE2=すみれの花咲く頃
TTITLE3=待ちましょう
TTITLE4=琵琶湖周航の歌
TTITLE5=鎌倉
TTITLE6=カチューシャの唄
TTITLE7=ゴンドラの唄
TTITLE8=七里ケ浜の哀歌
TTITLE9=もずが枯木で
TTITLE10=春の唄
TTITLE11=山小倉の灯
TTITLE12=上海帰りのリル
TTITLE13=君の名は
TTITLE14=惜別の唄
TTITLE15=銀座カンカン娘
TTITLE16=リンゴの歌
EXTD=
EXTT0=
EXTT1=
EXTT2=
EXTT3=
EXTT4=
EXTT5=
EXTT6=
EXTT7=
EXTT8=
EXTT9=
EXTT10=
EXTT11=
EXTT12=
EXTT13=
EXTT14=
EXTT15=
EXTT16=
PLAYORDER=
